<svg viewBox="0 0 1440 416" xmlns="http://www.w3.org/2000/svg"><path d="M1225.4 69.1c-75.1 75.1-75.1 196.9 0 272 58 58 143.9 71.2 214.6 39.6V29.5c-70.7-31.6-156.6-18.4-214.6 39.6z" fill="#fff6eb"/><g fill="#f9af27"><circle cx="1335.1" cy="115.5" r="14.8"/><circle cx="1349.9" cy="308.6" r="7.5"/><circle cx="1273.5" cy="144.6" r="7.5"/><path d="M1205.9 194.3h175.5l-125 125c-31.2-31.6-50.5-75-50.5-122.9v-2.1z"/></g><path d="M1227.2 194.3h154.3l-110 110c-27.4-27.7-44.3-65.8-44.3-107.9-.1-.7-.1-1.4 0-2.1z" fill="#f46363"/><path d="M1259.7 266.2c-5.9-10.1-2.7-24.3-5.8-35.9-3-11.2-12.9-21.8-12.9-33.9 0-.7 0-1.4.1-2.1h140.3l-94.2 94.2c-8.3-7.9-21.7-12.3-27.5-22.3z" fill="#ffdb92"/><circle cx="1290.7" cy="227" fill="#f46363" r="15.9"/></svg>