<svg width="25" height="26" xmlns="http://www.w3.org/2000/svg"><defs><linearGradient x1="91.488%" y1="4.948%" x2="-38.352%" y2="71.907%" id="a"><stop stop-color="#00A0FF" offset="0%"/><stop stop-color="#00A1FF" offset="1%"/><stop stop-color="#00BEFF" offset="26%"/><stop stop-color="#00D2FF" offset="51%"/><stop stop-color="#00DFFF" offset="76%"/><stop stop-color="#00E3FF" offset="100%"/></linearGradient><linearGradient x1="107.685%" y1="50%" x2="-130.64%" y2="50%" id="b"><stop stop-color="#FFE000" offset="0%"/><stop stop-color="#FFBD00" offset="41%"/><stop stop-color="orange" offset="78%"/><stop stop-color="#FF9C00" offset="100%"/></linearGradient><linearGradient x1="86.219%" y1="17.877%" x2="-50.15%" y2="194.703%" id="c"><stop stop-color="#FF3A44" offset="0%"/><stop stop-color="#C31162" offset="100%"/></linearGradient><linearGradient x1="-18.754%" y1="-54.052%" x2="42.121%" y2="24.917%" id="d"><stop stop-color="#32A071" offset="0%"/><stop stop-color="#2DA771" offset="7%"/><stop stop-color="#15CF74" offset="48%"/><stop stop-color="#06E775" offset="80%"/><stop stop-color="#00F076" offset="100%"/></linearGradient></defs><g fill="none"><path d="M1.44.54a2 2 0 0 0-.46 1.4v22.12a2 2 0 0 0 .46 1.4l.07.07L13.9 13.15v-.29L1.51.47l-.07.07z" fill="url(#a)"/><path d="M18 17.28l-4.1-4.13v-.29L18 8.72l.09.05L23 11.56c1.4.79 1.4 2.09 0 2.89l-4.89 2.78-.11.05z" fill="url(#b)"/><path d="M18.12 17.22L13.9 13 1.44 25.46a1.63 1.63 0 0 0 2.08.06l14.61-8.3" fill="url(#c)"/><path d="M18.12 8.78L3.51.48a1.63 1.63 0 0 0-2.08.06L13.9 13l4.22-4.22z" fill="url(#d)"/></g></svg>