<svg viewBox="0 0 1440 416" xmlns="http://www.w3.org/2000/svg"><path d="M237.8 280.1c-1.7 3.9-3.5 7.7-5.5 11.4-6.7 12.6-14.9 24.7-24.8 35.8-2.4 2.7-4.8 5.3-7.4 7.8-2.3 2.3-4.6 4.5-7 6.6-53.7 48.4-129.6 58.7-192.8 31V111.5c-.1.1-.3.2-.4.3l.4-.6V42.9c66-29 145.7-16.4 199.7 37.6 54.1 54 66.6 133.7 37.8 199.6z" fill="#fff6eb"/><path d="M226.4 233.1c0 .1 0 .2-.1.4-5.1 30.9-19.6 60.6-43.5 84.4C133.4 367.3 59.1 376.5.3 345.6V111.5c-.1.1-.3.2-.4.3l.4-.6V70c22.4-11.8 47-17.7 71.7-17.8 40.1-.2 80.2 15 110.8 45.6l.6.6c36.4 36.7 50.8 87.2 43 134.7z" fill="#f9af27"/><g fill="#f46363"><path d="M207.1 233.2c0 .2-.1.5-.1.7-5 25.8-17.5 50.5-37.5 70.5C123.6 350.3 53.2 356.7.4 323.7V111.5c-.1.1-.3.2-.4.3l.4-.6V91.8c21.9-13.7 46.8-20.6 71.7-20.7 35.2-.2 70.5 13.1 97.4 40l.6.6c32.7 33.2 45.1 78.9 37 121.5z"/><circle cx="25.2" cy="255.5" r="22.1"/><circle cx="72.8" cy="140.4" r="22.1"/><circle cx="120.5" cy="255.5" r="22.1"/></g><path d="M72.8 207.8L.4 280.2v-72.4z" fill="none"/><path d="M125 172.5v9.3l-13.9 3.3V199l13.9 3.3v9.3c10.8 0 19.5-8.8 19.5-19.5 0-10.8-8.7-19.6-19.5-19.6zm-96.7-2.7c0 9.5-6.8 17.4-15.8 19.2-1.2.2-2.4.4-3.7.4-2.7 0-5.3-.6-7.7-1.6-.2-.1-.4-.2-.7-.3v-25.7l1.4-5.8h13.9l3.3 13.9h9.3z" fill="#a87148"/><path d="M228.1 209.7c0 8-.6 15.8-1.8 23.4 0 .1 0 .2-.1.4-11.4 74.9-76.1 132.3-154.2 132.3-25.8 0-50.2-6.3-71.7-17.4V111.5c-.1.1-.3.2-.4.3l.4-.6V71C21.8 59.9 46.1 53.6 72 53.6c43.1 0 82.1 17.5 110.4 45.7 28.3 28.3 45.7 67.3 45.7 110.4z" fill="#f9af27"/><path d="M209.2 209.7c0 8-.7 15.9-2 23.5 0 .2-.1.5-.1.7-11.4 64.2-67.5 112.9-135 112.9-26.3 0-50.8-7.4-71.7-20.2V111.5c-.1.1-.3.2-.4.3l.4-.6V92.8C21.2 80 45.8 72.6 72.1 72.6c37.9 0 72.1 15.3 96.9 40.2 24.8 24.8 40.2 59 40.2 96.9z" fill="#f46363"/><path d="M196.8 209.7c0 5.3-2.1 10.3-4.6 15.1-2.6 5.1-5.6 10.1-6.9 15.2-1.3 4.8-1.4 10.1-1.6 15.4-.3 6-.8 11.8-3.6 16.7-3.1 5.4-8.6 8.9-14.2 12.4-4 2.5-7.9 5-11 8.1-2.8 2.8-5.1 6.4-7.4 10-3.7 5.9-7.3 11.9-13 15.2-6.1 3.5-13.8 3.4-21.3 3.8-3.7.2-7.4.5-10.8 1.4-3.1.8-6.1 2.2-9.1 3.8-6.8 3.5-13.7 7.8-21.2 7.8-7.8 0-14.9-4.6-22-8.2-2.8-1.4-5.5-2.6-8.3-3.4s-5.9-1.1-9-1.3c-8.1-.5-16.5-.1-23.1-3.9-3.8-2.2-6.7-5.7-9.3-9.5V111.5c-.1.1-.3.2-.4.3l.4-.6c2.6-3.8 5.5-7.3 9.3-9.5 3.7-2.1 8-2.9 12.4-3.3 6.5-.5 13.5-.2 19.6-1.9 6.3-1.7 12.4-5.8 18.7-8.6C64.1 86.2 68 85 72 85c3.9 0 7.6 1.1 11.2 2.7 6.5 2.8 12.7 7.1 19.1 8.8 6.7 1.8 14.4 1.2 21.5 2 3.8.4 7.4 1.3 10.6 3.1 3.2 1.9 5.8 4.6 8.1 7.8 4.2 5.7 7.5 12.6 12.3 17.4 4.6 4.6 11.2 7.9 16.8 11.8 3.4 2.4 6.4 5.1 8.4 8.6 2.1 3.6 2.9 7.9 3.3 12.3.6 6.6.2 13.6 1.9 19.8 1.5 5.5 4.8 10.9 7.5 16.4 2.3 4.5 4.1 9.1 4.1 14z" fill="#ffdb92"/><circle cx="72.1" cy="142.1" fill="#f46363" r="22.2"/><circle cx="119.9" cy="257.5" fill="#f46363" r="22.2"/><path d="M26.7 209.7c0 12.3-9.9 22.2-22.2 22.2-1.4 0-2.8-.1-4.1-.4v-43.6c.2 0 .4-.1.7-.1 1.1-.2 2.2-.3 3.4-.3 2.8 0 5.5.5 7.9 1.5 7.8 3 13.5 10.2 14.2 18.9 0 .5.1 1.2.1 1.8z" fill="#f46363"/><path d="M72.1 43.7v166L193.9 87.9S160.4 43.7 72.1 43.7z" fill="#fff6eb"/><path d="M60.1 271.7l-6.6-6.6 7.5-12.2-9.8-9.8-12.2 7.5-6.6-6.6c-7.6 7.6-7.6 20.1 0 27.7 7.7 7.6 20.1 7.6 27.7 0zm70.5-66.6l6.6-6.6 12.2 7.5 9.8-9.8-7.5-12.2 6.6-6.6c-7.6-7.6-20.1-7.6-27.7 0s-7.6 20 0 27.7z" fill="#a87148"/><circle cx="208.1" cy="342.3" fill="#f9af27" r="15"/><circle cx="238.7" cy="287.6" fill="#f9af27" r="7.5"/></svg>