<svg xmlns="http://www.w3.org/2000/svg" width="419.4561" height="80.0825" viewBox="0 0 419.4561 80.0825"><defs><style>.a{fill:#fff;}</style></defs><title>Uber_Sail_White</title><path class="a" d="M53.3428,56.8525A19.3842,19.3842,0,0,0,57.33,63.3877a17.1232,17.1232,0,0,0,6.0361,4.1533,19.6743,19.6743,0,0,0,7.5879,1.44,18.7764,18.7764,0,0,0,7.4766-1.4951,18.3832,18.3832,0,0,0,6.0918-4.209,19.0937,19.0937,0,0,0,4.0429-6.48,23.4286,23.4286,0,0,0,1.44-8.418V.5288h11.6308V78.0635H90.1162V70.8643a26.7082,26.7082,0,0,1-9.1387,6.3134A28.9811,28.9811,0,0,1,69.625,79.3926a30.7215,30.7215,0,0,1-11.5752-2.16,27.0664,27.0664,0,0,1-9.3037-6.1474,28.9552,28.9552,0,0,1-6.2031-9.5811,32.819,32.819,0,0,1-2.27-12.46V.5288h11.63v47.85A23.8422,23.8422,0,0,0,53.3428,56.8525Z" transform="translate(-40.2725 0.6899)"/><path class="a" d="M113.0439.5288h11.1875V28.7734a29.6136,29.6136,0,0,1,8.9717-6.1474,26.9121,26.9121,0,0,1,11.0762-2.2705,29.2105,29.2105,0,0,1,11.63,2.3257A29.2962,29.2962,0,0,1,171.6377,38.41a28.9374,28.9374,0,0,1,2.3262,11.52,28.5355,28.5355,0,0,1-2.3262,11.4639,29.4426,29.4426,0,0,1-15.7285,15.6728,29.2108,29.2108,0,0,1-11.63,2.3262,27.3029,27.3029,0,0,1-11.1318-2.27,29.3787,29.3787,0,0,1-9.0274-6.1475v7.0889H113.0439ZM124.01,49.93a19.3459,19.3459,0,0,0,5.6484,13.8457,20.0359,20.0359,0,0,0,6.2031,4.209,18.8462,18.8462,0,0,0,7.6426,1.5508,18.5848,18.5848,0,0,0,7.5322-1.5508,19.38,19.38,0,0,0,6.1465-4.209,20.5785,20.5785,0,0,0,4.1543-6.2031,18.8628,18.8628,0,0,0,1.5508-7.6426,19.2659,19.2659,0,0,0-1.5508-7.6987,20.4187,20.4187,0,0,0-4.1543-6.2583,18.6479,18.6479,0,0,0-6.1465-4.1534A19.4711,19.4711,0,0,0,129.77,35.9727a19.8734,19.8734,0,0,0-4.209,6.2583A19.2334,19.2334,0,0,0,124.01,49.93Z" transform="translate(-40.2725 0.6899)"/><path class="a" d="M180.6094,49.8184a29.0648,29.0648,0,0,1,2.2148-11.2979,30.1178,30.1178,0,0,1,6.0928-9.3594,29.3021,29.3021,0,0,1,32.01-6.48,26.8439,26.8439,0,0,1,8.9726,6.1474,28.1561,28.1561,0,0,1,5.87,9.3042,31.795,31.795,0,0,1,2.1045,11.6856v3.6552H191.9072a18.9023,18.9023,0,0,0,2.2149,6.3692,19.2115,19.2115,0,0,0,4.1543,5.0957,18.98,18.98,0,0,0,5.6484,3.3779,18.4164,18.4164,0,0,0,6.7012,1.2188,19.3812,19.3812,0,0,0,16.2822-8.3077l8.0859,5.9815A29.5151,29.5151,0,0,1,210.626,79.2822,31.1931,31.1931,0,0,1,198.83,77.0664a28.7,28.7,0,0,1-9.5254-6.2021,29.3882,29.3882,0,0,1-6.3692-9.36A29.0876,29.0876,0,0,1,180.6094,49.8184Zm28.7988-19.605a16.6685,16.6685,0,0,0-11.0215,3.9321,18.8688,18.8688,0,0,0-6.2578,10.4668h34.4473a18.3325,18.3325,0,0,0-6.1475-10.4668A16.6694,16.6694,0,0,0,209.4082,30.2134Z" transform="translate(-40.2725 0.6899)"/><path class="a" d="M270.4375,31.5425a11.7527,11.7527,0,0,0-9.082,3.8764q-3.5465,3.879-3.545,10.523V78.0635H246.623v-56.49H257.7v6.9781a15.73,15.73,0,0,1,5.4824-5.4273,15.5175,15.5175,0,0,1,8.03-1.9941H275.09V31.5425Z" transform="translate(-40.2725 0.6899)"/><path class="a" d="M314.41,54.36a17.099,17.099,0,0,0,5.87,11.02q4.7607,3.933,12.5166,3.9326,7.1982,0,11.0761-3.1572a10.2468,10.2468,0,0,0,3.877-8.3624q0-8.4169-11.6309-11.63l-12.8476-3.5454q-19.4972-5.3167-19.4951-21.045a21.3327,21.3327,0,0,1,1.9384-9.1382,20.5006,20.5006,0,0,1,5.3165-7.0332,24.6315,24.6315,0,0,1,8.03-4.4858,32.6085,32.6085,0,0,1,20.7129.166,26.5037,26.5037,0,0,1,8.5293,4.9844A26.775,26.775,0,0,1,354.34,13.82a28.823,28.823,0,0,1,3.0459,9.9688H346.0879q-1.22-6.9786-5.5381-10.8Q336.23,9.1682,329.03,9.168a15.29,15.29,0,0,0-9.8574,3.1015,10.2046,10.2046,0,0,0-3.877,8.418,9.2647,9.2647,0,0,0,2.88,6.978,19.5389,19.5389,0,0,0,8.3076,4.32l13.07,3.5444q10.3008,2.8813,15.0078,7.9194,4.7065,5.042,4.708,13.2373a21.23,21.23,0,0,1-1.8838,8.9717,20.8659,20.8659,0,0,1-5.3164,7.0889,25.1865,25.1865,0,0,1-8.3623,4.707,32.9978,32.9978,0,0,1-10.91,1.7168,35.2238,35.2238,0,0,1-11.4092-1.7725,27.8,27.8,0,0,1-9.082-5.039,26.2019,26.2019,0,0,1-6.3135-7.8643,25.74,25.74,0,0,1-2.88-10.1347Z" transform="translate(-40.2725 0.6899)"/><path class="a" d="M366.1357,62.4463q0-7.4195,4.8174-11.6856,4.8193-4.2627,13.68-4.8188l17.6113-1.33V40.957a9.728,9.728,0,0,0-2.99-7.5869q-2.9912-2.7129-8.64-2.7138A24.3955,24.3955,0,0,0,382.75,31.93a23.6405,23.6405,0,0,0-7.31,4.1533l-4.9844-8.0855a29.6486,29.6486,0,0,1,9.9131-5.5937,37.0828,37.0828,0,0,1,11.7968-1.8276,26.5394,26.5394,0,0,1,8.64,1.3291,19.0388,19.0388,0,0,1,6.6455,3.8213,16.918,16.918,0,0,1,4.2646,5.9814,19.6481,19.6481,0,0,1,1.4952,7.8086V64.9932q0,3.2138,3.3222,3.2119h2.88v9.8584H413.874a12.1992,12.1992,0,0,1-6.9228-1.8828,9.7839,9.7839,0,0,1-3.9317-5.2061,19.9912,19.9912,0,0,1-7.4209,6.0918,22.9477,22.9477,0,0,1-10.19,2.2158,23.233,23.233,0,0,1-7.6982-1.2187,18.3294,18.3294,0,0,1-6.0918-3.4893,15.7841,15.7841,0,0,1-5.4825-12.1279Zm10.7432-.1113a7.0982,7.0982,0,0,0,2.9912,5.9257,12.4654,12.4654,0,0,0,7.7529,2.2706,15.97,15.97,0,0,0,5.6495-.9961,15.2625,15.2625,0,0,0,4.6523-2.7139,12.9031,12.9031,0,0,0,3.1563-4.043,10.9929,10.9929,0,0,0,1.163-4.9844V53.1416l-15.95,1.3291Q376.8779,55.1358,376.8789,62.335Z" transform="translate(-40.2725 0.6899)"/><path class="a" d="M432.15,13.71a6.623,6.623,0,0,1-6.7568-6.7569,6.408,6.408,0,0,1,1.9384-4.707A6.5409,6.5409,0,0,1,432.15.3071a6.2358,6.2358,0,0,1,4.6523,1.9385,6.5088,6.5088,0,0,1,1.8828,4.707,6.64,6.64,0,0,1-1.8828,4.8184A6.23,6.23,0,0,1,432.15,13.71Zm5.5381,64.354H426.502v-56.49h11.1865Z" transform="translate(-40.2725 0.6899)"/><path class="a" d="M448.542,78.0635V.5288h11.1865V78.0635Z" transform="translate(-40.2725 0.6899)"/></svg>