<svg xmlns="http://www.w3.org/2000/svg" width="200" height="200" viewBox="0 0 200 200"><defs><style>.a{fill:#fff;}.b{fill:#61b81b;}</style></defs><title>UberSail_Box</title><rect width="200" height="200" rx="45.0851"/><path class="a" d="M39.7788,77.4893a11.3819,11.3819,0,0,0,2.34,3.8349,10.06,10.06,0,0,0,3.5424,2.4375,11.5559,11.5559,0,0,0,4.4527.8447,11.0212,11.0212,0,0,0,4.3877-.8774,10.7848,10.7848,0,0,0,3.5747-2.47,11.1982,11.1982,0,0,0,2.3725-3.8023,13.7437,13.7437,0,0,0,.8452-4.94V44.437h6.8243v45.5H61.3589V85.7114a15.6621,15.6621,0,0,1-5.3628,3.7051,17.0031,17.0031,0,0,1-6.6621,1.3,18.0373,18.0373,0,0,1-6.7925-1.2671,15.8938,15.8938,0,0,1-5.46-3.6079,16.9893,16.9893,0,0,1-3.64-5.6221,19.2676,19.2676,0,0,1-1.3325-7.3125V44.437h6.8247v28.08A14.0035,14.0035,0,0,0,39.7788,77.4893Z" transform="translate(0 0)"/><path class="a" d="M74.8135,44.437h6.5649V61.0122a17.3821,17.3821,0,0,1,5.2652-3.6079,15.8,15.8,0,0,1,6.5-1.3325,17.1407,17.1407,0,0,1,6.8247,1.3652,17.1925,17.1925,0,0,1,9.2309,9.23,16.9741,16.9741,0,0,1,1.3633,6.76,16.739,16.739,0,0,1-1.3633,6.727,17.2765,17.2765,0,0,1-9.2309,9.1978,17.14,17.14,0,0,1-6.8247,1.3647,16.0228,16.0228,0,0,1-6.5328-1.3325,17.2247,17.2247,0,0,1-5.2973-3.6074v4.16h-6.5Zm6.435,28.99a11.3527,11.3527,0,0,0,3.315,8.125,11.7555,11.7555,0,0,0,3.64,2.47,11.0508,11.0508,0,0,0,4.4849.91,10.8959,10.8959,0,0,0,4.42-.91,11.3806,11.3806,0,0,0,3.6074-2.47,12.0643,12.0643,0,0,0,2.4385-3.64,11.0808,11.0808,0,0,0,.9082-4.4848,11.3172,11.3172,0,0,0-.9082-4.5176,11.9721,11.9721,0,0,0-2.4385-3.6724,10.9484,10.9484,0,0,0-3.6074-2.4375,11.4271,11.4271,0,0,0-12.48,2.4375,11.6679,11.6679,0,0,0-2.47,3.6724A11.2943,11.2943,0,0,0,81.2485,73.4268Z" transform="translate(0 0)"/><path class="a" d="M114.4629,73.3613a17.0506,17.0506,0,0,1,1.3-6.6294,17.6625,17.6625,0,0,1,3.5752-5.4922A17.1979,17.1979,0,0,1,138.123,57.437a15.7488,15.7488,0,0,1,5.2647,3.6074,16.5279,16.5279,0,0,1,3.4453,5.46,18.6577,18.6577,0,0,1,1.2344,6.8569v2.145H121.0928a11.1039,11.1039,0,0,0,1.3,3.7378,11.2732,11.2732,0,0,0,2.4375,2.99,11.1355,11.1355,0,0,0,3.3154,1.9824,10.8024,10.8024,0,0,0,3.9326.7153,11.3741,11.3741,0,0,0,9.5547-4.875l4.7451,3.51a17.3163,17.3163,0,0,1-14.3,7.085,18.3093,18.3093,0,0,1-6.9228-1.3,16.8408,16.8408,0,0,1-5.59-3.64,17.1167,17.1167,0,0,1-5.1025-12.35Zm16.8994-11.5044a9.78,9.78,0,0,0-6.4668,2.3077,11.0718,11.0718,0,0,0-3.6728,6.142h20.2148a10.7528,10.7528,0,0,0-3.6074-6.142A9.7827,9.7827,0,0,0,131.3623,61.8569Z" transform="translate(0 0)"/><path class="a" d="M167.1768,62.6372a6.8961,6.8961,0,0,0-5.3291,2.2749,8.7953,8.7953,0,0,0-2.08,6.1743v18.85h-6.5655V56.7871h6.5v4.0947a9.2469,9.2469,0,0,1,3.2178-3.185,9.107,9.107,0,0,1,4.7119-1.17h2.2745v6.11Z" transform="translate(0 0)"/><path class="b" d="M60.2212,138.0264a10.0389,10.0389,0,0,0,3.4453,6.4677,11.1632,11.1632,0,0,0,7.3442,2.3077,10.0611,10.0611,0,0,0,6.5-1.8526,6.0132,6.0132,0,0,0,2.2754-4.9072q0-4.94-6.8252-6.8252l-7.5395-2.08q-11.4413-3.12-11.44-12.3506a12.52,12.52,0,0,1,1.1377-5.3623,12.0192,12.0192,0,0,1,3.12-4.1269,14.4422,14.4422,0,0,1,4.7124-2.6328,19.1387,19.1387,0,0,1,12.1548.0976,15.2918,15.2918,0,0,1,8.5473,7.4746,16.91,16.91,0,0,1,1.7876,5.8506h-6.63a10.5708,10.5708,0,0,0-3.25-6.3379,9.83,9.83,0,0,0-6.76-2.2422,8.9755,8.9755,0,0,0-5.7842,1.8194,5.9891,5.9891,0,0,0-2.2754,4.94,5.435,5.435,0,0,0,1.69,4.0947,11.4583,11.4583,0,0,0,4.875,2.5352l7.6695,2.08q6.0447,1.69,8.8071,4.6474a10.9255,10.9255,0,0,1,2.7627,7.7676,12.4585,12.4585,0,0,1-1.105,5.2647,12.2458,12.2458,0,0,1-3.12,4.16,14.79,14.79,0,0,1-4.9072,2.7627,19.3826,19.3826,0,0,1-6.4029,1.0078,20.676,20.676,0,0,1-6.6943-1.04,16.3308,16.3308,0,0,1-5.33-2.958,15.3726,15.3726,0,0,1-3.705-4.6153,15.1017,15.1017,0,0,1-1.69-5.9472Z" transform="translate(0 0)"/><path class="b" d="M90.5757,142.7715a8.6884,8.6884,0,0,1,2.8276-6.8574q2.8272-2.502,8.0274-2.8272l10.3349-.78v-2.1455a5.7019,5.7019,0,0,0-1.7558-4.4521,7.2938,7.2938,0,0,0-5.0684-1.5928,14.3147,14.3147,0,0,0-4.6157.7481,13.848,13.848,0,0,0-4.29,2.4375l-2.9248-4.7452a17.402,17.402,0,0,1,5.8174-3.2822,21.738,21.738,0,0,1,6.9234-1.0732,15.5689,15.5689,0,0,1,5.0683.78,11.1735,11.1735,0,0,1,3.9,2.2422,9.9,9.9,0,0,1,2.502,3.5108,11.5031,11.5031,0,0,1,.8789,4.582v14.95a1.6951,1.6951,0,0,0,1.9492,1.8848H121.84v5.7851h-3.25a7.1492,7.1492,0,0,1-4.0625-1.1054,5.7507,5.7507,0,0,1-2.3066-3.0547,11.7231,11.7231,0,0,1-4.3555,3.5752,13.4662,13.4662,0,0,1-5.98,1.3,13.6252,13.6252,0,0,1-4.5175-.7149,10.7734,10.7734,0,0,1-3.5752-2.0478,9.2662,9.2662,0,0,1-3.2173-7.1172Zm6.3052-.0654a4.1649,4.1649,0,0,0,1.7548,3.4775,7.3183,7.3183,0,0,0,4.55,1.333,9.3632,9.3632,0,0,0,3.3145-.585,8.9143,8.9143,0,0,0,2.7305-1.5927,7.5749,7.5749,0,0,0,1.8535-2.3721,6.4513,6.4513,0,0,0,.6816-2.9248v-2.7305l-9.3593.78Q96.88,138.4815,96.8809,142.7061Z" transform="translate(0 0)"/><path class="b" d="M129.3154,114.1719a3.8871,3.8871,0,0,1-3.9648-3.9658,3.7605,3.7605,0,0,1,1.1377-2.7618,3.8371,3.8371,0,0,1,2.8271-1.1377,3.6611,3.6611,0,0,1,2.73,1.1377,3.82,3.82,0,0,1,1.1045,2.7618,3.8976,3.8976,0,0,1-1.1045,2.8281A3.6574,3.6574,0,0,1,129.3154,114.1719Zm3.25,37.7646H126v-33.15h6.5654Z" transform="translate(0 0)"/><path class="b" d="M138.9346,151.9365v-45.5H145.5v45.5Z" transform="translate(0 0)"/></svg>